<?xml version="1.0" encoding="UTF-8"?>
<svg id="Layer_1" data-name="Layer 1" xmlns="http://www.w3.org/2000/svg" viewBox="0 0 895.45 398.64">
  <defs>
    <style>
      .cls-1 {
        fill: #333;
      }

      .cls-2 {
        fill: #d1d2d4;
      }

      .cls-3 {
        fill: #919191;
      }

      .cls-4 {
        fill: #165959;
      }

      .cls-5 {
        fill: #008c8c;
      }
    </style>
  </defs>
  <g>
    <path class="cls-3" d="M72.2,331.09h6.66l8.91,22.03h-6.6l-1.02-2.86h-9.25l-1.02,2.86h-6.6l8.91-22.03ZM78.42,345.3l-2.62-7.45c-.2-.54-.24-.75-.27-.88,0,0-.07.31-.27.88l-2.62,7.45h5.78Z"/>
    <path class="cls-3" d="M93.31,331.09h9.72c6.77,0,10.23,3.91,10.23,8.7s-3.47,8.7-10.27,8.7h-3.23v4.62h-6.46v-22.03ZM103.17,343.02c1.9,0,3.26-1.43,3.26-3.23s-1.36-3.23-3.23-3.23h-3.43v6.46h3.4Z"/>
    <path class="cls-3" d="M119.7,331.09h9.72c6.77,0,10.23,3.91,10.23,8.7s-3.47,8.7-10.27,8.7h-3.23v4.62h-6.46v-22.03ZM129.56,343.02c1.9,0,3.26-1.43,3.26-3.23s-1.36-3.23-3.23-3.23h-3.43v6.46h3.4Z"/>
    <path class="cls-3" d="M146.08,331.09h6.46v16.56h11.73v5.47h-18.19v-22.03Z"/>
    <path class="cls-3" d="M170.39,331.09h6.46v22.03h-6.46v-22.03Z"/>
    <path class="cls-3" d="M183.31,342.1c0-6.29,4.66-11.36,11.66-11.36,3.37,0,6.39,1.19,8.4,3.2l-4.25,4.39c-1.56-1.6-2.82-1.73-3.88-1.73-2.86,0-5.2,2.31-5.2,5.51s2.18,5.58,5.2,5.58c1.8,0,3.47-.82,4.69-2.45l4.11,4.52c-2.21,2.45-5.3,3.77-9.08,3.77-7,0-11.66-5.07-11.66-11.42Z"/>
    <path class="cls-3" d="M217.41,331.09h6.66l8.91,22.03h-6.59l-1.02-2.86h-9.25l-1.02,2.86h-6.6l8.91-22.03ZM223.63,345.3l-2.62-7.45c-.2-.54-.24-.75-.27-.88,0,0-.07.31-.27.88l-2.62,7.45h5.78Z"/>
    <path class="cls-3" d="M241.52,336.56h-6.9v-5.47h20.26v5.47h-6.9v16.56h-6.46v-16.56Z"/>
    <path class="cls-3" d="M260.83,331.09h6.46v22.03h-6.46v-22.03Z"/>
    <path class="cls-3" d="M273.75,342.1c0-6.29,4.73-11.36,11.8-11.36s11.83,5.07,11.83,11.36-4.76,11.42-11.83,11.42-11.8-5.07-11.8-11.42ZM290.65,342.1c0-3.2-2.11-5.51-5.1-5.51-2.79,0-5.07,2.31-5.07,5.51s2.11,5.58,5.07,5.58,5.1-2.31,5.1-5.58Z"/>
    <path class="cls-3" d="M303.84,331.09h5.61l7,9.76c.51.68.99,1.67.99,1.67v-11.42h6.46v22.03h-5.61l-7-9.59c-.51-.68-.99-1.67-.99-1.67v11.25h-6.46v-22.03Z"/>
    <path class="cls-3" d="M330.22,350.87l2.11-5.03c1.7.95,3.64,2.01,7.17,2.01.68,0,2.65-.2,2.65-1.36,0-1.05-1.39-1.22-2.65-1.53-4.25-.95-8.7-2.58-8.7-7.55,0-4.59,4.18-6.66,8.7-6.66,3.64,0,6.29.92,8.53,2.24l-2.18,5c-1.29-.88-4.22-1.6-6.36-1.6-.54,0-1.97.14-1.97,1.02,0,.78.82,1.12,1.97,1.39,3.3.71,9.38,2.04,9.38,7.68,0,5.03-4.83,7.04-9.38,7.04-6.19,0-8.6-2.38-9.28-2.65Z"/>
    <path class="cls-3" d="M365.75,342.1c0-6.29,4.73-11.36,11.8-11.36s11.83,5.07,11.83,11.36-4.76,11.42-11.83,11.42-11.8-5.07-11.8-11.42ZM382.65,342.1c0-3.2-2.11-5.51-5.1-5.51-2.79,0-5.07,2.31-5.07,5.51s2.11,5.58,5.07,5.58,5.1-2.31,5.1-5.58Z"/>
    <path class="cls-3" d="M395.84,331.09h17v5.47h-10.54v2.69h9.21v5.41h-9.21v8.46h-6.46v-22.03Z"/>
    <path class="cls-3" d="M428.55,342.1c0-6.29,4.66-11.36,11.66-11.36,3.37,0,6.39,1.19,8.4,3.2l-4.25,4.39c-1.56-1.6-2.82-1.73-3.88-1.73-2.86,0-5.2,2.31-5.2,5.51s2.18,5.58,5.2,5.58c1.8,0,3.47-.82,4.69-2.45l4.11,4.52c-2.21,2.45-5.3,3.77-9.08,3.77-7,0-11.66-5.07-11.66-11.42Z"/>
    <path class="cls-3" d="M453.64,342.1c0-6.29,4.73-11.36,11.8-11.36s11.83,5.07,11.83,11.36-4.76,11.42-11.83,11.42-11.8-5.07-11.8-11.42ZM470.54,342.1c0-3.2-2.11-5.51-5.1-5.51-2.79,0-5.07,2.31-5.07,5.51s2.11,5.58,5.07,5.58,5.1-2.31,5.1-5.58Z"/>
    <path class="cls-3" d="M483.73,331.09h5.51l4.32,6.19c.71,1.05,1.87,2.86,1.87,2.86,0,0,1.16-1.8,1.87-2.86l4.32-6.19h5.51v22.03h-6.46v-11.15s-1.12,1.8-1.73,2.65l-3.5,4.9-3.54-4.9c-.61-.85-1.7-2.58-1.7-2.58v11.08h-6.46v-22.03Z"/>
    <path class="cls-3" d="M514.26,331.09h9.72c6.77,0,10.23,3.91,10.23,8.7s-3.47,8.7-10.27,8.7h-3.23v4.62h-6.46v-22.03ZM524.12,343.02c1.9,0,3.26-1.43,3.26-3.23s-1.36-3.23-3.23-3.23h-3.43v6.46h3.4Z"/>
    <path class="cls-3" d="M540.58,344.38v-13.29h6.46v12.92c0,2.65,1.53,3.67,3.37,3.67s3.37-1.02,3.37-3.67v-12.92h6.46v13.29c0,6.05-4.25,9.15-9.83,9.15s-9.83-3.09-9.83-9.15Z"/>
    <path class="cls-3" d="M573.01,336.56h-6.9v-5.47h20.26v5.47h-6.9v16.56h-6.46v-16.56Z"/>
    <path class="cls-3" d="M592.33,331.09h17.51v5.47h-11.05v2.69h10.61v5.41h-10.61v2.99h11.46v5.47h-17.92v-22.03Z"/>
    <path class="cls-3" d="M616.23,331.09h9.72c6.77,0,10.23,3.91,10.23,8.7,0,2.55-1.16,5.17-3.47,6.77l4.11,6.56h-7.38l-2.52-4.73c-.68.07-1.05.1-1.6.1h-2.65v4.62h-6.46v-22.03ZM626.02,343.02c2.01,0,3.33-1.46,3.33-3.23s-1.36-3.23-3.3-3.23h-3.37v6.46h3.33Z"/>
    <path class="cls-3" d="M660.9,331.09h6.66l8.91,22.03h-6.6l-1.02-2.86h-9.25l-1.02,2.86h-6.6l8.91-22.03ZM667.12,345.3l-2.62-7.45c-.2-.54-.24-.75-.27-.88,0,0-.07.31-.27.88l-2.62,7.45h5.78Z"/>
    <path class="cls-3" d="M682.02,331.09h6.46v16.56h11.73v5.47h-18.19v-22.03Z"/>
    <path class="cls-3" d="M704.22,342.1c0-6.29,4.66-11.36,11.66-11.36,3.37,0,6.39,1.19,8.4,3.2l-4.25,4.39c-1.56-1.6-2.82-1.73-3.88-1.73-2.86,0-5.2,2.31-5.2,5.51s2.18,5.58,5.2,5.58c1.7,0,2.89-.68,3.74-1.26v-2.01h-3.03v-3.81h8.6v8.53c-1.87,2.75-5.47,4.39-9.45,4.39-7.07,0-11.8-5.07-11.8-11.42Z"/>
    <path class="cls-3" d="M732.61,331.09h17.51v5.47h-11.05v2.69h10.61v5.41h-10.61v2.99h11.46v5.47h-17.92v-22.03Z"/>
    <path class="cls-3" d="M756.51,331.09h10.64c3.67,0,7.45,1.22,7.45,6.09,0,1.36-.75,3.06-1.94,3.84,2.11.68,3.81,2.48,3.81,5.47,0,4.86-4.15,6.63-8.87,6.63h-11.08v-22.03ZM766.57,339.69c1.5,0,1.97-.58,1.97-1.5,0-1.02-.48-1.63-1.97-1.63h-3.6v3.13h3.6ZM767.42,347.64c1.26,0,2.31-.24,2.31-1.56s-1.05-1.56-2.31-1.56h-4.45v3.13h4.45Z"/>
    <path class="cls-3" d="M782.86,331.09h9.72c6.77,0,10.23,3.91,10.23,8.7,0,2.55-1.16,5.17-3.47,6.77l4.11,6.56h-7.38l-2.52-4.73c-.68.07-1.05.1-1.6.1h-2.65v4.62h-6.46v-22.03ZM792.65,343.02c2.01,0,3.33-1.46,3.33-3.23s-1.36-3.23-3.3-3.23h-3.37v6.46h3.33Z"/>
    <path class="cls-3" d="M816.59,331.09h6.66l8.91,22.03h-6.59l-1.02-2.86h-9.25l-1.02,2.86h-6.59l8.91-22.03ZM822.81,345.3l-2.62-7.45c-.2-.54-.24-.75-.27-.88,0,0-.07.31-.27.88l-2.62,7.45h5.78Z"/>
  </g>
  <g>
    <path class="cls-3" d="M538.06,112.49h31.14c-14.33-25.77-36.32-45.5-62.77-56.76,3.31,2.59,6.45,5.4,9.34,8.47,12.45,13.22,20.26,30.29,22.29,48.29Z"/>
    <path class="cls-2" d="M380.34,262.14c-18.32-24.98-28-54.54-28-85.51,0-55.62,44.69-100.97,100.04-102.1,3.14.4,46.99,9.57,67.92,63.95l11.5-23.33c-2.87-32.98-27.33-61.25-59.74-68.84-5.77-.78-11.67-1.17-17.57-1.17-72.51,0-131.5,58.99-131.5,131.5,0,64.75,47.91,119.4,110.13,129.72-20.79-10.2-38.82-25.23-52.78-44.21Z"/>
    <polygon class="cls-3" points="525 143.86 557.24 143.86 569.46 119.04 537.23 119.04 525 143.86"/>
    <path class="cls-2" d="M454.49,275.5l-1.75-.45c-19.9-7.63-36.82-20.91-48.95-38.42-5.33-7.69-9.6-16.02-12.7-24.78-4.01-11.24-6.05-23.09-6.05-35.21,0-21.56,6.48-42.3,18.75-59.99,10.53-15.23,24.69-27.21,41.24-35.09-48.33,4.83-86.11,45.65-86.11,95.08,0,59.71,37.73,111.97,94.15,130.84,1.3.44,2.68.65,4.05.62,48.9-1.05,93.78-29.6,115.33-73.43l-11.06-24.1c-20.5,39.54-61.83,64.93-106.91,64.93Z"/>
    <path class="cls-3" d="M455.03,268.9c42.9-.21,82.1-24.7,101.27-62.81l-32.74-.88c-16.1,22.04-41.78,35.17-69.08,35.17-18.35,0-36.28-6.04-50.89-16.85,11.2,20.72,29.37,36.9,51.43,45.37Z"/>
  </g>
  <g>
    <polygon class="cls-1" points="142.71 197.5 166.56 197.5 189.06 152.63 177.14 128.88 142.71 197.5"/>
    <polygon class="cls-1" points="137.36 208.14 101.27 280.04 113.08 304.02 149.22 232.02 137.36 208.14"/>
    <polygon class="cls-3" points="177.14 114.33 218.89 197.5 251.28 197.5 177.11 49.2 63.33 276.74 95.57 276.74 177.14 114.33"/>
    <polygon class="cls-1" points="63.29 283.32 75.49 308.11 107.75 308.11 95.56 283.32 63.29 283.32"/>
    <polygon class="cls-3" points="182.41 45.11 262.03 204.09 142.67 204.08 154.97 228.81 274.26 228.79 311.85 304.03 323.65 280.04 206.2 45.11 182.41 45.11"/>
    <polygon class="cls-1" points="154.88 235.36 142.46 260.12 246.28 260.12 265.51 235.36 154.88 235.36"/>
    <polygon class="cls-1" points="251.76 263.76 274.31 308.11 306.56 308.11 271.63 238.21 251.76 263.76"/>
  </g>
  <g>
    <polygon class="cls-4" points="752.73 197.5 728.89 197.5 706.39 152.63 718.31 128.88 752.73 197.5"/>
    <polygon class="cls-4" points="758.09 208.14 794.18 280.04 782.37 304.02 746.23 232.02 758.09 208.14"/>
    <polygon class="cls-5" points="718.31 114.33 676.56 197.5 644.17 197.5 718.34 49.2 832.12 276.74 799.88 276.74 718.31 114.33"/>
    <polygon class="cls-4" points="832.16 283.32 819.96 308.11 787.7 308.11 799.89 283.32 832.16 283.32"/>
    <polygon class="cls-5" points="713.04 45.11 633.42 204.09 752.78 204.08 740.47 228.81 621.19 228.79 583.6 304.03 571.8 280.04 689.25 45.11 713.04 45.11"/>
    <polygon class="cls-4" points="740.57 235.36 752.99 260.12 649.17 260.12 629.93 235.36 740.57 235.36"/>
    <polygon class="cls-4" points="643.69 263.76 621.14 308.11 588.88 308.11 623.82 238.21 643.69 263.76"/>
  </g>
</svg>